<svg xmlns="http://www.w3.org/2000/svg" xmlns:xlink="http://www.w3.org/1999/xlink" viewBox="0 0 58 38">
  <defs>
    <style>
      .cls-1 {
        fill: url(#linear-gradient);
      }
    </style>
    <linearGradient id="linear-gradient" x1="0.872" y1="0.815" x2="0.307" y2="0.5" gradientUnits="objectBoundingBox">
      <stop offset="0" stop-color="#bcbcbc"/>
      <stop offset="1" stop-color="#d5d5d5"/>
    </linearGradient>
  </defs>
  <g id="cloud" transform="translate(-1 -11)">
    <path id="Path_39" data-name="Path 39" class="cls-1" d="M50,27A16.168,16.168,0,0,0,34.084,11a16.72,16.72,0,0,0-13.661,7.336A8,8,0,0,0,8,25c0,.153.014.3.023.454C8.013,25.636,8,25.82,8,26A12.807,12.807,0,0,0,1,37.155,11.88,11.88,0,0,0,12.845,49H37.352c.138,0,.272-.016.408-.021s.271.021.409.021h9.8A11.061,11.061,0,0,0,59,37.972,11.217,11.217,0,0,0,50,27Z"/>
  </g>
</svg>
