<svg xmlns="http://www.w3.org/2000/svg" viewBox="0 0 8.714 10.908">
  <g id="humidity" transform="translate(0.001 0.001)">
    <path id="Path_40" data-name="Path 40" d="M4.408.1a.195.195,0,0,0-.351.009L2.745,3.05,1.952,1.589a.19.19,0,0,0-.174-.1.2.2,0,0,0-.171.107L.2,4.372A1.811,1.811,0,0,0,.988,6.808q.057.029.117.055a3.287,3.287,0,0,0,4.238,3.877l.214-.072A3.287,3.287,0,0,0,7.446,6.054ZM1.22,6.489A1.426,1.426,0,0,1,.52,4.6l.024-.05L1.786,2.1l.758,1.4L1.3,6.28C1.271,6.348,1.246,6.419,1.22,6.489ZM7.2,8.647A2.9,2.9,0,0,1,5.435,10.3l-.214.071A2.9,2.9,0,0,1,1.595,6.59q.029-.076.063-.151L4.247.644,7.1,6.231A2.894,2.894,0,0,1,7.2,8.647Zm0,0" transform="translate(0 0)"/>
    <path id="Path_41" data-name="Path 41" d="M245.989,329.02h0a.2.2,0,0,0-.195.194,2.274,2.274,0,0,1-1.256,2.027.195.195,0,1,0,.173.349h0a2.662,2.662,0,0,0,1.47-2.372A.2.2,0,0,0,245.989,329.02Zm0,0" transform="translate(-239.222 -322.011)"/>
    <path id="Path_42" data-name="Path 42" d="M363.313,447.844h.389v.389h-.389Zm0,0" transform="translate(-355.573 -438.303)"/>
    <path id="Path_43" data-name="Path 43" d="M390.734,411.281h.389v.389h-.389Zm0,0" transform="translate(-382.411 -402.52)"/>
    <path id="Path_44" data-name="Path 44" d="M335.895,484.406h.389v.389h-.389Zm0,0" transform="translate(-328.739 -474.087)"/>
  </g>
</svg>
